<?xml version="1.0" encoding="utf-8"?>
<!-- Generator: Adobe Illustrator 24.1.1, SVG Export Plug-In . SVG Version: 6.00 Build 0)  -->
<svg version="1.1" id="Layer_1" xmlns="http://www.w3.org/2000/svg" xmlns:xlink="http://www.w3.org/1999/xlink" x="0px" y="0px"
	 viewBox="0 0 777.4 99.3" style="enable-background:new 0 0 777.4 99.3;" xml:space="preserve">
<style type="text/css">
	.st0{fill:#FFFFFF;}
	.st1{fill:#6EACFC;}
	.st2{fill:none;stroke:#000000;stroke-width:0.7087;stroke-linecap:round;}
</style>
<g id="svgGroup">
	<g id="XMLID_1_">
		<g>
			<path class="st0" d="M534.2,51.1c0,2.2-0.2,4.4-0.6,6.6c-0.3,1.6-0.8,3.1-1.3,4.6c-0.9,2.3-2.1,4.5-3.6,6.5
				c-0.6,0.8-1.2,1.5-1.9,2.1c-2.3,2.4-5.1,4.3-8.3,5.6c-2.9,1.2-6.1,1.8-9.2,1.9c-0.3,0-0.7,0-1,0c-2.5,0-4.9-0.3-7.3-0.9
				c-1-0.3-2.1-0.6-3-1.1c-3.2-1.3-5.9-3.2-8.2-5.6c-2-2.2-3.7-4.7-4.9-7.4c-0.2-0.4-0.3-0.8-0.5-1.2c-1-2.6-1.6-5.2-1.8-8
				c-0.1-1-0.1-2-0.1-3c0-2.1,0.2-4.3,0.6-6.3c0.3-1.7,0.8-3.4,1.4-5c1.3-3.4,3.1-6.2,5.5-8.6c2.3-2.3,5-4.1,8.2-5.4
				c2.9-1.1,6-1.8,9.1-1.9c0.4,0,0.8,0,1.2,0c3.3,0,6.5,0.5,9.5,1.7c0.2,0.1,0.4,0.1,0.6,0.2c3.2,1.3,5.9,3.1,8.3,5.4
				c2,2,3.6,4.4,4.8,7c0.2,0.5,0.5,1,0.7,1.5c0.9,2.3,1.5,4.6,1.8,7.1C534.1,48.3,534.2,49.7,534.2,51.1z M524.8,54.4
				c0.1-1,0.2-2.1,0.2-3.1c0-2.6-0.4-5.1-1.3-7.4c-0.6-1.7-1.4-3.2-2.4-4.7c-0.3-0.5-0.7-1-1.1-1.4c-1.5-1.7-3.3-3.1-5.3-4.1
				c-2-1-4.3-1.6-6.7-1.6c-1.8,0-3.5,0.2-5.2,0.7c-2.8,0.8-5.2,2.3-7.1,4.5c-1.8,2.1-3,4.7-3.7,7.4c-0.5,2-0.7,4.1-0.7,6.4
				c0,2.6,0.4,5.1,1.3,7.5c0.6,1.6,1.4,3.2,2.3,4.6c0.4,0.5,0.8,1.1,1.2,1.6c1.5,1.8,3.3,3.2,5.3,4.2c2,1,4.3,1.6,6.6,1.6
				c1.3,0,2.6-0.1,3.9-0.4c1.1-0.2,2.1-0.6,3.1-1c2.1-0.9,3.8-2.3,5.3-3.9c1.2-1.4,2.1-2.9,2.8-4.6c0.2-0.5,0.4-1,0.5-1.5
				C524.3,57.6,524.7,56,524.8,54.4z"/>
			<polygon class="st0" points="477.9,68.8 477.9,77.3 436.3,77.3 436.3,7.3 445.8,7.3 445.8,68.8 			"/>
			<path class="st0" d="M254.6,67.2l2.8,7.6c-2.1,1.1-4.5,2-7,2.7c-2.4,0.7-5.3,1-8.4,1c-0.1,0-0.2,0-0.3,0c-2,0-4-0.2-5.9-0.6
				c-1.4-0.3-2.8-0.8-4.2-1.4c-3-1.3-5.6-3.2-7.7-5.6c-1.7-2-3.1-4.2-4.2-6.6c-0.3-0.6-0.5-1.3-0.8-2c-0.8-2.4-1.3-4.8-1.6-7.3
				c-0.1-1.2-0.2-2.4-0.2-3.7c0-3,0.4-6,1.2-9c0.2-0.5,0.3-1.1,0.5-1.6c1-2.8,2.4-5.4,4.3-7.7c0.3-0.3,0.5-0.6,0.8-0.9
				c2.2-2.5,4.9-4.4,7.9-5.8c2.3-1,4.8-1.7,7.3-2c1.1-0.1,2.1-0.2,3.2-0.2c1.2,0,2.4,0,3.6,0.1c1.5,0.1,2.9,0.4,4.2,0.7
				c2.2,0.5,4.3,1.3,6.4,2.3l-2.7,7.6c-0.9-0.4-1.7-0.8-2.6-1.1c-0.9-0.4-1.8-0.6-2.6-0.9c-0.1,0-0.1,0-0.2,0
				c-1.7-0.4-3.5-0.7-5.6-0.7c-2.3,0-4.5,0.4-6.5,1.3c-2,0.9-3.8,2.1-5.3,3.8c-1.1,1.2-2,2.6-2.7,4.1c-0.3,0.6-0.5,1.3-0.8,1.9
				c-0.5,1.4-0.8,2.8-1,4.3c-0.2,1.3-0.2,2.5-0.2,3.8c0,1.7,0.2,3.4,0.5,5.1c0.2,0.9,0.4,1.7,0.7,2.5c0.5,1.6,1.2,3.1,2.1,4.5
				c0.4,0.6,0.7,1.1,1.2,1.6c1.4,1.8,3.1,3.2,5,4.2c1.9,1,4.1,1.5,6.5,1.5c2.5,0,4.7-0.3,6.5-0.8c0.9-0.3,1.9-0.6,2.8-1
				c0.9-0.4,1.8-0.8,2.8-1.4C254.5,67.3,254.5,67.2,254.6,67.2z"/>
			<path class="st0" d="M206.5,10.1c0,0.7-0.1,1.3-0.2,2c-0.2,1-0.8,1.9-1.5,2.6c-0.8,0.8-1.8,1.3-2.9,1.5c-0.6,0.1-1.1,0.2-1.7,0.2
				c-1.6,0-3.2-0.6-4.4-1.8c0,0,0,0-0.1-0.1c-1.2-1.1-1.9-2.7-1.9-4.4c0,0,0-0.1,0-0.1c0-0.7,0.1-1.3,0.2-2c0.2-1,0.8-1.9,1.5-2.6
				c0.8-0.8,1.8-1.3,2.9-1.5c0.6-0.1,1.1-0.2,1.7-0.2c1.7,0,3.2,0.6,4.4,1.8c0,0,0,0,0.1,0.1C205.8,6.8,206.5,8.4,206.5,10.1
				C206.5,10.1,206.5,10.1,206.5,10.1z"/>
			<rect x="195.7" y="25.3" class="st0" width="9" height="52"/>
			<polygon class="st0" points="186.7,9.8 161.1,77.3 150.4,77.3 124.7,9.8 134,6.2 156,66.9 178.1,6.5 			"/>
			<polygon class="st1" points="777.4,40.2 777.4,45.9 745.5,65.9 741,58.8 766.9,43 741,27.1 745.4,20.1 			"/>
			<path class="st0" d="M694.7,63.4c0,1.3-0.2,2.6-0.5,3.9c-0.2,0.8-0.6,1.6-1,2.4c-1,1.9-2.4,3.5-4.2,4.8c-1.1,0.8-2.3,1.4-3.5,2
				c-1,0.4-2,0.8-3,1c-2.6,0.7-5.4,1.1-8.5,1.1c-1.8,0-3.7-0.1-5.5-0.3c-1.8-0.2-3.5-0.6-5.2-1.2c-1.3-0.4-2.6-0.9-3.8-1.5
				c-1.3-0.6-2.5-1.3-3.5-2.1c-0.2-0.1-0.3-0.2-0.4-0.3l3.8-7.5c1,0.9,2.1,1.7,3.3,2.3c1,0.5,2.1,1,3.2,1.4c2.4,0.8,4.9,1.3,7.5,1.4
				c0.3,0,0.7,0,1,0c3.6,0,6.3-0.6,8.2-1.7c0.1,0,0.2-0.1,0.2-0.1c1.9-1.2,2.8-2.8,2.8-4.8c0-0.8-0.1-1.6-0.4-2.4
				c0-0.1-0.1-0.3-0.2-0.4c-0.2-0.4-0.4-0.8-0.7-1.2c-0.3-0.3-0.6-0.7-0.9-1c-0.1-0.1-0.2-0.2-0.4-0.3c-0.4-0.3-0.8-0.6-1.2-0.9
				c-0.5-0.3-1-0.6-1.5-0.9c-0.4-0.2-0.8-0.4-1.2-0.6c-1.1-0.5-2.5-1.1-4-1.7c-0.8-0.3-1.6-0.6-2.5-0.9c-1.4-0.5-2.9-1-4.3-1.7
				c-2.8-1.3-5.1-2.7-6.8-4.3c-1.7-1.6-2.8-3.7-3.2-5.9c-0.3-1.2-0.4-2.4-0.4-3.6c0-2,0.4-3.9,1.3-5.6c0.8-1.4,1.8-2.7,3-3.8
				c0.3-0.3,0.6-0.5,0.9-0.8c1.1-0.8,2.2-1.5,3.4-2c0.9-0.4,1.8-0.8,2.8-1c1.4-0.4,2.7-0.7,4.1-0.9c1.4-0.2,2.8-0.3,4.2-0.3
				c3.1,0,5.9,0.3,8.3,0.9c0.2,0.1,0.5,0.1,0.7,0.2c1.5,0.4,2.9,0.9,4.3,1.4c0.9,0.4,1.8,0.8,2.6,1.2l-2.5,7.4
				c-1.8-1.1-3.8-1.9-6.1-2.6c-1.5-0.4-3-0.7-4.5-0.8c-1.1-0.1-2.1-0.1-3.2-0.1c-1,0-2,0.1-2.9,0.2c-2,0.3-3.7,0.9-5,1.9
				c-0.5,0.4-1,0.8-1.4,1.3c-0.5,0.5-0.8,1.1-1,1.7c-0.2,0.5-0.3,1.1-0.3,1.6c0,0.5,0.1,1,0.2,1.5c0.1,0.2,0.2,0.5,0.3,0.7
				c0.3,0.5,0.7,1.1,1.3,1.6c0.1,0.1,0.3,0.2,0.4,0.3c0.8,0.6,1.9,1.2,3.2,1.8c0.5,0.2,1.1,0.5,1.6,0.7c1,0.4,2.1,0.8,3.4,1.2
				c2.5,0.9,4.7,1.8,6.6,2.6c0.6,0.3,1.1,0.5,1.7,0.8c0.9,0.5,1.8,1,2.7,1.6c0.9,0.6,1.6,1.2,2.3,1.8c0.2,0.1,0.3,0.3,0.5,0.4
				c0.7,0.7,1.4,1.5,1.9,2.4c0.4,0.7,0.8,1.4,1.1,2.2c0.4,1.1,0.7,2.3,0.8,3.5C694.7,62.1,694.7,62.7,694.7,63.4z"/>
			<path class="st0" d="M647.9,47.7c0,0.1,0,0.3,0,0.5c0,2.2-0.1,4.5-0.3,6.7c0,0,0,0.1,0,0.1h-36.4c0.2,1.7,0.6,3.4,1.1,5
				c0.9,2.5,2.2,4.7,4,6.4c2.8,2.7,6.5,4.1,11.1,4.1c3,0,5.7-0.3,8.1-0.9c2.4-0.6,4.7-1.5,6.9-2.5l2.1,7.7c-1.6,0.7-3.2,1.3-4.8,1.8
				c-1.1,0.3-2.2,0.6-3.3,0.9c-1.7,0.4-3.4,0.6-5.1,0.8c-1.7,0.2-3.3,0.2-5,0.2c-2,0-3.9-0.2-5.8-0.6c-1.5-0.3-2.9-0.7-4.3-1.3
				c-3-1.2-5.5-3-7.7-5.3c-1.5-1.6-2.7-3.5-3.6-5.5c-0.5-1-0.9-2-1.2-3c-0.6-1.9-1.1-3.9-1.4-6c-0.2-1.8-0.4-3.7-0.3-5.6
				c0-2.5,0.3-5.1,0.8-7.6c0.2-1.1,0.5-2.2,0.9-3.2c0.7-2.1,1.6-4.1,2.8-6c0.6-0.9,1.3-1.8,2-2.7c2.1-2.4,4.5-4.3,7.4-5.7
				c2.9-1.4,6.1-2,9.6-2c1.6,0,3.3,0.1,4.9,0.4c1.7,0.3,3.3,0.8,4.9,1.5c2.8,1.3,5.1,3,7,5.2s3.3,4.8,4.2,7.7
				C647.4,41.8,647.9,44.7,647.9,47.7z M639.6,47.7c0-1.5-0.1-3.1-0.4-4.6c-0.3-1.7-0.9-3.3-1.6-4.6c-0.5-0.9-1.1-1.8-1.8-2.5
				c-1.8-2-4.3-3.3-7-3.8c-1.2-0.2-2.4-0.3-3.5-0.3c-3.9,0-7.1,1.3-9.6,4c-1.2,1.3-2.1,2.8-2.8,4.4c-0.5,1.3-1,2.8-1.3,4.3
				c-0.2,1-0.3,2-0.5,3H639.6z"/>
			<path class="st0" d="M593,50.8c0,2.2-0.2,4.4-0.6,6.6c-0.3,1.6-0.7,3.2-1.3,4.7c-0.7,1.9-1.6,3.8-2.7,5.5
				c-0.7,1.1-1.5,2.2-2.3,3.2c-1.8,2.1-4,3.9-6.5,5.3c-0.3,0.1-0.5,0.3-0.8,0.4c-2.7,1.3-5.6,2-8.6,2c-2.1,0-4.3-0.3-6.3-0.9
				c-0.8-0.3-1.6-0.6-2.3-0.9c-1.2-0.6-2.3-1.2-3.4-1.9c-1.1-0.7-2.2-1.5-3.1-2.4v26.9h-9V38.6c0-0.6,0-1.2-0.1-1.7
				c-0.2-1.4-0.7-2.4-1.5-3.1c-0.8-0.7-1.8-1.2-2.8-1.3c-0.5-0.1-1-0.1-1.5-0.1l1.9-7c3.9,0,6.9,1,8.9,3c1.2,1.2,2.1,2.7,2.6,4.3
				c0.2-0.3,0.4-0.5,0.6-0.8c0.2-0.3,0.5-0.6,0.7-0.9c0.3-0.3,0.6-0.6,0.9-0.9c0.6-0.6,1.2-1.1,1.8-1.6c0.5-0.4,1.1-0.8,1.7-1.2
				c0.9-0.6,1.9-1.1,2.9-1.5c0.6-0.3,1.3-0.5,1.9-0.7c1.2-0.4,2.4-0.6,3.6-0.8c0.8-0.1,1.6-0.1,2.4-0.1c3,0,5.9,0.6,8.7,1.8
				c2.8,1.2,5.2,2.9,7.3,5.2c1.4,1.6,2.6,3.3,3.6,5.1c0.5,1,1,2.1,1.4,3.3C592.4,42.8,593,46.6,593,50.8z M582.7,59
				c0.7-2.4,1.1-5,1.1-8c0-3-0.4-5.7-1.3-8s-2-4.4-3.4-6c-1.4-1.7-3.1-2.9-5-3.8c-1.9-0.9-3.9-1.3-6.1-1.3c-1.9,0-3.8,0.3-5.6,1.1
				c-0.7,0.3-1.4,0.7-2.1,1.1c-2.3,1.4-4,3-5.3,4.7v25.6c1.7,1.8,3.7,3.3,6,4.4c2.2,1.2,4.7,1.8,7.5,1.8c1.4,0,2.8-0.2,4.2-0.6
				c0.7-0.2,1.4-0.5,2-0.8c1.9-0.9,3.5-2.3,4.8-3.9c1-1.2,1.8-2.6,2.4-4C582.2,60.5,582.5,59.8,582.7,59z"/>
			<path class="st0" d="M396.3,24.7l-2.7,9.3c-0.7-0.3-1.4-0.5-2.1-0.6c-0.7-0.1-1.5-0.2-2.4-0.2c-1.9,0-3.7,0.4-5.5,1.2
				c-1.5,0.7-2.9,1.7-4.1,2.9c-0.2,0.2-0.4,0.4-0.6,0.7c-1.3,1.5-2.4,3.5-3.2,5.9c0,0.1-0.1,0.2-0.1,0.2c-0.4,1.2-0.7,2.5-0.9,3.8
				c-0.2,1.3-0.3,2.6-0.3,4c0,0.3,0,0.7,0,1v24.3h-9v-52h8.7v11.3c0.6-1.6,1.4-3.2,2.4-4.7c1-1.5,2.2-2.9,3.5-4
				c1.2-1,2.5-1.8,3.8-2.4c0.3-0.1,0.6-0.3,0.9-0.4c1.8-0.7,3.8-1,6-1c1,0,2,0,3,0.1c0.4,0,0.8,0.1,1.2,0.2c0.4,0.1,0.8,0.1,1.1,0.2
				C396.1,24.7,396.2,24.7,396.3,24.7z"/>
			<path class="st0" d="M353.4,51.1c0,2.2-0.2,4.4-0.6,6.6c-0.3,1.6-0.8,3.1-1.3,4.6c-0.9,2.3-2.1,4.5-3.6,6.5
				c-0.6,0.8-1.2,1.5-1.9,2.1c-2.3,2.4-5.1,4.3-8.3,5.6c-2.9,1.2-6.1,1.8-9.2,1.9c-0.3,0-0.7,0-1,0c-2.5,0-4.9-0.3-7.3-0.9
				c-1-0.3-2.1-0.6-3.1-1.1c-3.2-1.3-5.9-3.2-8.2-5.6c-2.1-2.2-3.7-4.7-4.9-7.4c-0.2-0.4-0.4-0.8-0.5-1.2c-1-2.6-1.6-5.2-1.8-8
				c-0.1-1-0.1-2-0.1-3c0-2.1,0.2-4.3,0.6-6.3c0.3-1.7,0.8-3.4,1.4-5c1.3-3.4,3.1-6.2,5.4-8.6c2.3-2.3,5-4.1,8.2-5.4
				c2.9-1.1,6-1.8,9.1-1.9c0.4,0,0.8,0,1.2,0c3.3,0,6.5,0.5,9.5,1.7c0.2,0.1,0.4,0.1,0.6,0.2c3.2,1.3,5.9,3.1,8.3,5.4
				c2,2,3.6,4.4,4.8,7c0.2,0.5,0.5,1,0.7,1.5c0.9,2.3,1.5,4.6,1.8,7.1C353.3,48.3,353.4,49.7,353.4,51.1z M344,54.4
				c0.1-1,0.2-2.1,0.2-3.1c0-2.6-0.4-5.1-1.3-7.4c-0.6-1.7-1.4-3.2-2.4-4.7c-0.3-0.5-0.7-1-1.1-1.4c-1.5-1.7-3.3-3.1-5.3-4.1
				c-2-1-4.3-1.6-6.6-1.6c-1.8,0-3.5,0.2-5.2,0.7c-2.8,0.8-5.2,2.3-7.1,4.5c-1.8,2.1-3,4.7-3.7,7.4c-0.5,2-0.7,4.1-0.7,6.4
				c0,2.6,0.4,5.1,1.3,7.5c0.6,1.6,1.4,3.2,2.3,4.6c0.4,0.5,0.8,1.1,1.2,1.6c1.5,1.8,3.3,3.2,5.3,4.2c2,1,4.3,1.6,6.6,1.6
				c1.3,0,2.6-0.1,3.9-0.4c1.1-0.2,2.1-0.6,3.1-1c2.1-0.9,3.8-2.3,5.3-3.9c1.1-1.4,2.1-2.9,2.8-4.6c0.2-0.5,0.4-1,0.5-1.5
				C343.5,57.6,343.9,56,344,54.4z"/>
			<path class="st0" d="M296.1,67.8l2.5,7.2c-0.5,0.3-1.1,0.6-1.6,0.9c-0.5,0.3-1.1,0.5-1.8,0.8c-0.7,0.3-1.4,0.5-2,0.7
				c-2.3,0.8-4.6,1.2-7.1,1.2c-1.8,0-3.5-0.2-5.2-0.7c-2.6-0.7-4.9-2.2-6.7-4.2c-1.5-1.7-2.5-3.6-3.2-5.7c-0.5-1.6-0.9-3.4-1-5.3
				c-0.1-1.1-0.1-2.1-0.1-3.2V35h-9v-7.8h9.2l1.9-16.4h6.9v16.4h14.4V35h-14.4v25.1c0,0.7,0,1.4,0.1,2.1c0.1,0.7,0.2,1.3,0.3,1.9
				c0.1,0.3,0.2,0.7,0.3,1c0.4,1.3,1,2.4,1.8,3.2c0.7,0.8,1.6,1.4,2.7,1.8c1,0.4,2.1,0.6,3.3,0.6c1.3,0,2.6-0.2,3.9-0.5
				c0.3-0.1,0.6-0.2,0.8-0.3C293.4,69.2,294.8,68.5,296.1,67.8z"/>
			<polygon class="st1" points="89,2.5 60.8,84.4 53.4,81.9 81.6,0 			"/>
			<polygon class="st1" points="32,20.1 36.4,27.1 10.5,43 36.4,58.8 31.9,65.9 0,45.9 0,40.2 			"/>
		</g>
		<g>
			<polygon class="st2" points="10.5,43 36.4,58.8 31.9,65.9 0,45.9 0,40.2 32,20.1 36.4,27.1 			"/>
			<polygon class="st2" points="60.8,84.4 53.4,81.9 81.6,0 89,2.5 			"/>
			<polygon class="st2" points="150.4,77.3 124.7,9.8 134,6.2 156,66.9 178.1,6.5 186.7,9.8 161.1,77.3 			"/>
			<rect x="195.7" y="25.3" class="st2" width="9" height="52"/>
			<path class="st2" d="M195.8,14.6c1.2,1.2,2.7,1.8,4.4,1.8c0.6,0,1.1,0,1.7-0.2c1.1-0.2,2.1-0.7,2.9-1.5c0.7-0.7,1.2-1.6,1.5-2.6
				c0.2-0.6,0.2-1.3,0.2-2c0,0,0-0.1,0-0.1c0-1.7-0.7-3.2-1.9-4.4c0,0,0,0-0.1-0.1c-1.2-1.2-2.7-1.8-4.4-1.8c-0.6,0-1.1,0-1.7,0.2
				c-1.1,0.2-2.1,0.7-2.9,1.5c-0.7,0.7-1.2,1.6-1.5,2.6c-0.2,0.6-0.2,1.3-0.2,2c0,0,0,0,0,0.1C193.9,11.8,194.6,13.4,195.8,14.6
				C195.8,14.6,195.8,14.6,195.8,14.6z"/>
			<path class="st2" d="M256.6,27.2l-2.7,7.6c-0.9-0.4-1.7-0.8-2.6-1.1c-0.9-0.4-1.8-0.6-2.6-0.9c-0.1,0-0.1,0-0.2,0
				c-1.7-0.4-3.5-0.7-5.6-0.7c-2.3,0-4.5,0.4-6.5,1.3c-2,0.9-3.8,2.1-5.3,3.8c-1.1,1.2-2,2.6-2.7,4.1c-0.3,0.6-0.5,1.3-0.8,1.9
				c-0.5,1.4-0.8,2.8-1,4.3c-0.2,1.3-0.2,2.5-0.2,3.8c0,1.7,0.2,3.4,0.5,5.1c0.2,0.9,0.4,1.7,0.7,2.5c0.5,1.6,1.2,3.1,2.1,4.5
				c0.4,0.6,0.7,1.1,1.2,1.6c1.4,1.8,3.1,3.2,5,4.2c1.9,1,4.1,1.5,6.5,1.5c2.5,0,4.7-0.3,6.5-0.8c0.9-0.3,1.9-0.6,2.8-1
				c0.9-0.4,1.8-0.8,2.8-1.4c0.1,0,0.1-0.1,0.2-0.1l2.8,7.6c-2.1,1.1-4.5,2-7,2.7c-2.4,0.7-5.3,1-8.4,1c-0.1,0-0.2,0-0.3,0
				c-2,0-4-0.2-5.9-0.6c-1.4-0.3-2.8-0.8-4.2-1.4c-3-1.3-5.6-3.2-7.7-5.6c-1.7-2-3.1-4.2-4.2-6.6c-0.3-0.6-0.5-1.3-0.8-2
				c-0.8-2.4-1.3-4.8-1.6-7.3c-0.1-1.2-0.2-2.4-0.2-3.7c0-3,0.4-6,1.2-9c0.2-0.5,0.3-1.1,0.5-1.6c1-2.8,2.4-5.4,4.3-7.7
				c0.3-0.3,0.5-0.6,0.8-0.9c2.2-2.5,4.9-4.4,7.9-5.8c2.3-1,4.8-1.7,7.3-2c1.1-0.1,2.1-0.2,3.2-0.2c1.2,0,2.4,0,3.6,0.1
				c1.5,0.1,2.9,0.4,4.2,0.7C252.4,25.4,254.5,26.2,256.6,27.2z"/>
			<path class="st2" d="M270.1,27.2l1.9-16.4h6.9v16.4h14.4V35h-14.4v25.1c0,0.7,0,1.4,0.1,2.1c0.1,0.7,0.2,1.3,0.3,1.9
				c0.1,0.3,0.2,0.7,0.3,1c0.4,1.3,1,2.4,1.8,3.2c0.7,0.8,1.6,1.4,2.7,1.8c1,0.4,2.1,0.6,3.3,0.6c1.3,0,2.6-0.2,3.9-0.5
				c0.3-0.1,0.6-0.2,0.8-0.3c1.5-0.5,2.9-1.2,4.2-1.9l2.5,7.2c-0.5,0.3-1.1,0.6-1.6,0.9c-0.5,0.3-1.1,0.5-1.8,0.8
				c-0.7,0.3-1.4,0.5-2,0.7c-2.3,0.8-4.6,1.2-7.1,1.2c-1.8,0-3.5-0.2-5.2-0.7c-2.6-0.7-4.9-2.2-6.7-4.2c-1.5-1.7-2.5-3.6-3.2-5.7
				c-0.5-1.6-0.9-3.4-1-5.3c-0.1-1.1-0.1-2.1-0.1-3.2V35h-9v-7.8H270.1z"/>
			<path class="st2" d="M302.2,45c-0.4,2.1-0.6,4.2-0.6,6.3c0,1,0,2,0.1,3c0.2,2.7,0.8,5.4,1.8,8c0.2,0.4,0.3,0.8,0.5,1.2
				c1.2,2.7,2.8,5.2,4.9,7.4c2.3,2.4,5,4.3,8.2,5.6c1,0.4,2,0.8,3.1,1.1c2.4,0.6,4.8,1,7.3,0.9c0.3,0,0.7,0,1,0
				c3.2-0.1,6.3-0.7,9.2-1.9c3.2-1.3,5.9-3.2,8.3-5.6c0.7-0.7,1.3-1.4,1.9-2.1c1.5-2,2.7-4.2,3.6-6.5c0.6-1.5,1-3.1,1.3-4.6
				c0.4-2.2,0.6-4.4,0.6-6.6c0-1.4-0.1-2.8-0.2-4.1c-0.3-2.4-0.9-4.8-1.8-7.1c-0.2-0.5-0.4-1-0.7-1.5c-1.2-2.6-2.8-5-4.8-7
				c-2.3-2.3-5.1-4.1-8.3-5.4c-0.2-0.1-0.4-0.2-0.6-0.2c-3-1.1-6.3-1.7-9.5-1.7c-0.4,0-0.8,0-1.2,0c-3.1,0.1-6.2,0.7-9.1,1.9
				c-3.2,1.3-5.9,3.1-8.2,5.4c-2.3,2.3-4.1,5.2-5.4,8.6C303,41.6,302.5,43.3,302.2,45z"/>
			<path class="st2" d="M344.2,51.3c0-2.6-0.4-5.1-1.3-7.4c-0.6-1.7-1.4-3.2-2.4-4.7c-0.3-0.5-0.7-1-1.1-1.4
				c-1.5-1.7-3.3-3.1-5.3-4.1c-2-1-4.3-1.6-6.6-1.6c-1.8,0-3.5,0.2-5.2,0.7c-2.8,0.8-5.2,2.3-7.1,4.5c-1.8,2.1-3,4.7-3.7,7.4
				c-0.5,2-0.7,4.1-0.7,6.4c0,2.6,0.4,5.1,1.3,7.5c0.6,1.6,1.4,3.2,2.3,4.6c0.4,0.5,0.8,1.1,1.2,1.6c1.5,1.8,3.3,3.2,5.3,4.2
				c2,1,4.3,1.6,6.6,1.6c1.3,0,2.6-0.1,3.9-0.4c1.1-0.2,2.1-0.6,3.1-1c2.1-0.9,3.8-2.3,5.3-3.9c1.1-1.4,2.1-2.9,2.8-4.6
				c0.2-0.5,0.4-1,0.5-1.5c0.5-1.5,0.8-3.1,1-4.7C344.1,53.4,344.2,52.3,344.2,51.3z"/>
			<path class="st2" d="M396.3,24.7l-2.7,9.3c-0.7-0.3-1.4-0.5-2.1-0.6c-0.7-0.1-1.5-0.2-2.4-0.2c-1.9,0-3.7,0.4-5.5,1.2
				c-1.5,0.7-2.9,1.7-4.1,2.9c-0.2,0.2-0.4,0.4-0.6,0.7c-1.3,1.5-2.4,3.5-3.2,5.9c0,0.1-0.1,0.2-0.1,0.2c-0.4,1.2-0.7,2.5-0.9,3.8
				c-0.2,1.3-0.3,2.6-0.3,4c0,0.3,0,0.7,0,1v24.3h-9v-52h8.7v11.3c0.6-1.6,1.4-3.2,2.4-4.7c1-1.5,2.2-2.9,3.5-4
				c1.2-1,2.5-1.8,3.8-2.4c0.3-0.1,0.6-0.3,0.9-0.4c1.8-0.7,3.8-1,6-1c1,0,2,0,3,0.1c0.4,0,0.8,0.1,1.2,0.2c0.4,0.1,0.8,0.1,1.1,0.2
				C396.1,24.7,396.2,24.7,396.3,24.7z"/>
			<polygon class="st2" points="477.9,68.8 477.9,77.3 436.3,77.3 436.3,7.3 445.8,7.3 445.8,68.8 			"/>
			<path class="st2" d="M483,45c-0.4,2.1-0.6,4.2-0.6,6.3c0,1,0,2,0.1,3c0.2,2.7,0.8,5.4,1.8,8c0.2,0.4,0.3,0.8,0.5,1.2
				c1.2,2.7,2.8,5.2,4.9,7.4c2.3,2.4,5,4.3,8.2,5.6c1,0.4,2,0.8,3,1.1c2.4,0.6,4.8,1,7.3,0.9c0.3,0,0.7,0,1,0
				c3.2-0.1,6.3-0.7,9.2-1.9c3.2-1.3,5.9-3.2,8.3-5.6c0.7-0.7,1.3-1.4,1.9-2.1c1.5-2,2.7-4.2,3.6-6.5c0.6-1.5,1-3.1,1.3-4.6
				c0.4-2.2,0.6-4.4,0.6-6.6c0-1.4-0.1-2.8-0.2-4.1c-0.3-2.4-0.9-4.8-1.8-7.1c-0.2-0.5-0.4-1-0.7-1.5c-1.2-2.6-2.8-5-4.8-7
				c-2.3-2.3-5.1-4.1-8.3-5.4c-0.2-0.1-0.4-0.2-0.6-0.2c-3-1.1-6.3-1.7-9.5-1.7c-0.4,0-0.8,0-1.2,0c-3.1,0.1-6.2,0.7-9.1,1.9
				c-3.2,1.3-5.9,3.1-8.2,5.4c-2.3,2.3-4.1,5.2-5.5,8.6C483.8,41.6,483.3,43.3,483,45z"/>
			<path class="st2" d="M525,51.3c0-2.6-0.4-5.1-1.3-7.4c-0.6-1.7-1.4-3.2-2.4-4.7c-0.3-0.5-0.7-1-1.1-1.4c-1.5-1.7-3.3-3.1-5.3-4.1
				c-2-1-4.3-1.6-6.7-1.6c-1.8,0-3.5,0.2-5.2,0.7c-2.8,0.8-5.2,2.3-7.1,4.5c-1.8,2.1-3,4.7-3.7,7.4c-0.5,2-0.7,4.1-0.7,6.4
				c0,2.6,0.4,5.1,1.3,7.5c0.6,1.6,1.4,3.2,2.3,4.6c0.4,0.5,0.8,1.1,1.2,1.6c1.5,1.8,3.3,3.2,5.3,4.2c2,1,4.3,1.6,6.6,1.6
				c1.3,0,2.6-0.1,3.9-0.4c1.1-0.2,2.1-0.6,3.1-1c2.1-0.9,3.8-2.3,5.3-3.9c1.2-1.4,2.1-2.9,2.8-4.6c0.2-0.5,0.4-1,0.5-1.5
				c0.5-1.5,0.8-3.1,1-4.7C525,53.4,525,52.3,525,51.3z"/>
			<path class="st2" d="M540.2,32.3l1.9-7c3.9,0,6.9,1,8.9,3c1.2,1.2,2.1,2.7,2.6,4.3c0.2-0.3,0.4-0.5,0.6-0.8
				c0.2-0.3,0.5-0.6,0.7-0.9c0.3-0.3,0.6-0.6,0.9-0.9c0.6-0.6,1.2-1.1,1.8-1.6c0.5-0.4,1.1-0.8,1.7-1.2c0.9-0.6,1.9-1.1,2.9-1.5
				c0.6-0.3,1.3-0.5,1.9-0.7c1.2-0.4,2.4-0.6,3.6-0.8c0.8-0.1,1.6-0.1,2.4-0.1c3,0,5.9,0.6,8.7,1.8c2.8,1.2,5.2,2.9,7.3,5.2
				c1.4,1.6,2.6,3.3,3.6,5.1c0.5,1,1,2.1,1.4,3.3c1.3,3.3,1.9,7.1,1.9,11.3c0,2.2-0.2,4.4-0.6,6.6c-0.3,1.6-0.7,3.2-1.3,4.7
				c-0.7,1.9-1.6,3.8-2.7,5.5c-0.7,1.1-1.5,2.2-2.3,3.2c-1.8,2.1-4,3.9-6.5,5.3c-0.3,0.1-0.5,0.3-0.8,0.4c-2.7,1.3-5.6,2-8.6,2
				c-2.1,0-4.3-0.3-6.3-0.9c-0.8-0.3-1.6-0.6-2.3-0.9c-1.2-0.6-2.3-1.2-3.4-1.9c-1.1-0.7-2.2-1.5-3.1-2.4v26.9h-9V38.6
				c0-0.6,0-1.2-0.1-1.7c-0.2-1.4-0.7-2.4-1.5-3.1c-0.8-0.7-1.8-1.2-2.8-1.3C541.2,32.3,540.7,32.3,540.2,32.3z"/>
			<path class="st2" d="M555.1,38.7v25.6c1.7,1.8,3.7,3.3,6,4.4c2.2,1.2,4.7,1.8,7.5,1.8c1.4,0,2.8-0.2,4.2-0.6
				c0.7-0.2,1.4-0.5,2-0.8c1.9-0.9,3.5-2.3,4.8-3.9c1-1.2,1.8-2.6,2.4-4c0.3-0.7,0.6-1.4,0.8-2.1c0.7-2.4,1.1-5,1.1-8
				c0-3-0.4-5.7-1.3-8s-2-4.4-3.4-6c-1.4-1.7-3.1-2.9-5-3.8c-1.9-0.9-3.9-1.3-6.1-1.3c-1.9,0-3.8,0.3-5.6,1.1
				c-0.7,0.3-1.4,0.7-2.1,1.1C558,35.5,556.3,37,555.1,38.7z"/>
			<path class="st2" d="M647.6,55h-36.4c0.2,1.7,0.6,3.4,1.1,5c0.9,2.5,2.2,4.7,4,6.4c2.8,2.7,6.5,4.1,11.1,4.1c3,0,5.7-0.3,8.1-0.9
				c2.4-0.6,4.7-1.5,6.9-2.5l2.1,7.7c-1.6,0.7-3.2,1.3-4.8,1.8c-1.1,0.3-2.2,0.6-3.3,0.9c-1.7,0.4-3.4,0.6-5.1,0.8
				c-1.7,0.2-3.3,0.2-5,0.2c-2,0-3.9-0.2-5.8-0.6c-1.5-0.3-2.9-0.7-4.3-1.3c-3-1.2-5.5-3-7.7-5.3c-1.5-1.6-2.7-3.5-3.6-5.5
				c-0.5-1-0.9-2-1.2-3c-0.6-1.9-1.1-3.9-1.4-6c-0.2-1.8-0.4-3.7-0.3-5.6c0-2.5,0.3-5.1,0.8-7.6c0.2-1.1,0.5-2.2,0.9-3.2
				c0.7-2.1,1.6-4.1,2.8-6c0.6-0.9,1.3-1.8,2-2.7c2.1-2.4,4.5-4.3,7.4-5.7c2.9-1.4,6.1-2,9.6-2c1.6,0,3.3,0.1,4.9,0.4
				c1.7,0.3,3.3,0.8,4.9,1.5c2.8,1.3,5.1,3,7,5.2s3.3,4.8,4.2,7.7c0.9,2.9,1.4,5.8,1.4,8.8c0,0.1,0,0.3,0,0.5
				C647.9,50.4,647.8,52.7,647.6,55C647.6,54.9,647.6,55,647.6,55z"/>
			<path class="st2" d="M611.1,47.7h28.5c0-1.5-0.1-3.1-0.4-4.6c-0.3-1.7-0.9-3.3-1.6-4.6c-0.5-0.9-1.1-1.8-1.8-2.5
				c-1.8-2-4.3-3.3-7-3.8c-1.2-0.2-2.4-0.3-3.5-0.3c-3.9,0-7.1,1.3-9.6,4c-1.2,1.3-2.1,2.8-2.8,4.4c-0.5,1.3-1,2.8-1.3,4.3
				C611.3,45.7,611.2,46.7,611.1,47.7z"/>
			<path class="st2" d="M655.4,73.1l3.8-7.5c1,0.9,2.1,1.7,3.3,2.3c1,0.5,2.1,1,3.2,1.4c2.4,0.8,4.9,1.3,7.5,1.4c0.3,0,0.7,0,1,0
				c3.6,0,6.3-0.6,8.2-1.7c0.1,0,0.2-0.1,0.2-0.1c1.9-1.2,2.8-2.8,2.8-4.8c0-0.8-0.1-1.6-0.4-2.4c0-0.1-0.1-0.3-0.2-0.4
				c-0.2-0.4-0.4-0.8-0.7-1.2c-0.3-0.3-0.6-0.7-0.9-1c-0.1-0.1-0.2-0.2-0.4-0.3c-0.4-0.3-0.8-0.6-1.2-0.9c-0.5-0.3-1-0.6-1.5-0.9
				c-0.4-0.2-0.8-0.4-1.2-0.6c-1.1-0.5-2.5-1.1-4-1.7c-0.8-0.3-1.6-0.6-2.5-0.9c-1.4-0.5-2.9-1-4.3-1.7c-2.8-1.3-5.1-2.7-6.8-4.3
				c-1.7-1.6-2.8-3.7-3.2-5.9c-0.3-1.2-0.4-2.4-0.4-3.6c0-2,0.4-3.9,1.3-5.6c0.8-1.4,1.8-2.7,3-3.8c0.3-0.3,0.6-0.5,0.9-0.8
				c1.1-0.8,2.2-1.5,3.4-2c0.9-0.4,1.8-0.8,2.8-1c1.4-0.4,2.7-0.7,4.1-0.9c1.4-0.2,2.8-0.3,4.2-0.3c3.1,0,5.9,0.3,8.3,0.9
				c0.2,0.1,0.5,0.1,0.7,0.2c1.5,0.4,2.9,0.9,4.3,1.4c0.9,0.4,1.8,0.8,2.6,1.2l-2.5,7.4c-1.8-1.1-3.8-1.9-6.1-2.6
				c-1.5-0.4-3-0.7-4.5-0.8c-1.1-0.1-2.1-0.1-3.2-0.1c-1,0-2,0.1-2.9,0.2c-2,0.3-3.7,0.9-5,1.9c-0.5,0.4-1,0.8-1.4,1.3
				c-0.5,0.5-0.8,1.1-1,1.7c-0.2,0.5-0.3,1.1-0.3,1.6c0,0.5,0.1,1,0.2,1.5c0.1,0.2,0.2,0.5,0.3,0.7c0.3,0.5,0.7,1.1,1.3,1.6
				c0.1,0.1,0.3,0.2,0.4,0.3c0.8,0.6,1.9,1.2,3.2,1.8c0.5,0.2,1.1,0.5,1.6,0.7c1,0.4,2.1,0.8,3.4,1.2c2.5,0.9,4.7,1.8,6.6,2.6
				c0.6,0.3,1.1,0.5,1.7,0.8c0.9,0.5,1.8,1,2.7,1.6c0.9,0.6,1.6,1.2,2.3,1.8c0.2,0.1,0.3,0.3,0.5,0.4c0.7,0.7,1.4,1.5,1.9,2.4
				c0.4,0.7,0.8,1.4,1.1,2.2c0.4,1.1,0.7,2.3,0.8,3.5c0.1,0.7,0.1,1.3,0.1,2c0,1.3-0.2,2.6-0.5,3.9c-0.2,0.8-0.6,1.6-1,2.4
				c-1,1.9-2.4,3.5-4.2,4.8c-1.1,0.8-2.3,1.4-3.5,2c-1,0.4-2,0.8-3,1c-2.6,0.7-5.4,1.1-8.5,1.1c-1.8,0-3.7-0.1-5.5-0.3
				c-1.8-0.2-3.5-0.6-5.2-1.2c-1.3-0.4-2.6-0.9-3.8-1.5c-1.3-0.6-2.5-1.3-3.5-2.1C655.7,73.3,655.5,73.2,655.4,73.1z"/>
			<polygon class="st2" points="741,27.1 745.4,20.1 777.4,40.2 777.4,45.9 745.5,65.9 741,58.8 766.9,43 			"/>
		</g>
	</g>
</g>
</svg>
