<svg width="31" height="30" viewBox="0 0 31 30" fill="none" xmlns="http://www.w3.org/2000/svg">
<path d="M13.02 0C11.5417 0.0052745 10.1254 0.60005 9.08012 1.6546C8.0348 2.70915 7.44523 4.13792 7.44 5.62927V5.62927C7.44 7.22124 7.04571 8.98802 5.88223 10.0746C4.78315 11.1011 3.90441 12.2984 3.31691 13.6183C3.27869 13.7042 3.194 13.7604 3.1 13.7604V13.7604C3.01807 13.7623 2.93661 13.7474 2.86055 13.7167C2.78448 13.6859 2.71539 13.6399 2.65744 13.5814C2.59949 13.523 2.55389 13.4533 2.5234 13.3765C2.4929 13.2998 2.47814 13.2176 2.48 13.135V13.135C2.48 12.804 2.59674 12.4077 2.40592 12.1373L2.03273 11.6086C1.63705 11.0479 0.832144 10.9076 0.469631 11.4902C0.426892 11.5589 0.386762 11.6294 0.349361 11.7016C0.120062 12.144 0.000201543 12.6357 0 13.135C0 14.2012 0.546659 15.1342 1.36762 15.6897C1.98282 16.1061 2.48 16.7704 2.48 17.5133V17.5133C2.48 19.5818 3.20285 21.4674 4.38699 23.0862C5.50746 24.6178 5.87197 26.7153 6.87639 28.3255C6.99997 28.5236 7.14826 28.7125 7.32344 28.8894C8.03476 29.6008 8.99586 30 9.9975 30C10.9991 30 11.9602 29.6008 12.6716 28.8894V28.8894C12.9624 28.596 13.3794 28.4675 13.7865 28.5378C14.543 28.6684 15.3109 28.7718 16.12 28.7718C16.9291 28.7718 17.697 28.6684 18.4535 28.5378C18.8606 28.4675 19.2776 28.596 19.5684 28.8894V28.8894C20.2798 29.6008 21.2409 30 22.2425 30C23.2441 30 24.2052 29.6008 24.9166 28.8894C25.3481 28.4534 25.6119 27.9461 25.7451 27.4059C26.0409 26.2062 26.3639 24.9408 27.1681 24.0027C27.3524 23.7876 27.529 23.5656 27.6972 23.3371C28.0613 22.8427 28.6228 22.5171 29.2368 22.5171V22.5171C30.2106 22.5171 31 21.7277 31 20.7539V14.3214C31 13.3207 30.1888 12.5095 29.1881 12.5095V12.5095C28.5567 12.5095 27.9797 12.1739 27.6032 11.6671C27.5382 11.5797 27.472 11.4932 27.4046 11.4077C26.9218 10.796 26.6642 10.0203 26.8025 9.25334L27.2566 6.73576C27.2722 6.6496 27.28 6.56222 27.28 6.47467V6.23346C27.28 5.55434 26.7295 5.00379 26.0503 5.00379V5.00379C26.0434 5.00379 26.0371 5.00384 26.0302 5.00403C25.8563 5.0088 23.4012 5.10136 21.1047 6.56498C20.7381 6.79863 20.2918 6.88436 19.8703 6.77796C19.7037 6.73592 19.5366 6.69612 19.369 6.65856C18.9035 6.55427 18.6 6.1063 18.6 5.62927V5.62927C18.6 2.53567 16.0865 0 13.02 0ZM13.02 2.5019C14.7436 2.5019 16.12 3.89045 16.12 5.62927V5.62927C16.12 5.99627 15.7773 6.25401 15.4107 6.27056C14.272 6.32197 13.1721 6.49562 12.1202 6.76949C11.1126 7.03181 9.91967 6.67041 9.92 5.62927V5.62927C9.92 3.89045 11.2964 2.5019 13.02 2.5019ZM24.49 7.74087V7.74087C24.5082 7.73627 24.5252 7.76069 24.5222 7.77923L24.0634 10.593V10.593C23.9919 11.006 24.1419 11.4263 24.4588 11.7006L24.49 11.7276C25.318 12.451 26.0018 13.3269 26.505 14.3083L26.5701 14.4396C26.7436 14.7898 27.1007 15.0114 27.4916 15.0114V15.0114C28.0595 15.0114 28.52 15.4718 28.52 16.0398V18.987C28.52 19.5549 28.0597 20.0152 27.4919 20.0152V20.0152C27.1009 20.0152 26.7437 20.2369 26.5703 20.5874L26.505 20.7195C25.8999 21.9254 24.9451 22.9862 23.715 23.8844V23.8844C23.2023 24.2671 23.0462 24.9669 23.3475 25.5312L23.3666 25.5669C23.6617 26.0698 23.6084 26.6902 23.1719 27.1306C23.0542 27.2544 22.9129 27.3529 22.7565 27.4202C22.6001 27.4875 22.4318 27.5222 22.2617 27.5222C22.0917 27.5222 21.9234 27.4875 21.767 27.4202C21.6106 27.3529 21.4693 27.2544 21.3516 27.1306L20.46 26.2299L20.4532 26.2236C20.1429 25.9352 19.7091 25.8207 19.2969 25.9184V25.9184C18.29 26.1523 17.2199 26.2699 16.12 26.2699C15.0509 26.2738 13.9848 26.1559 12.9419 25.9184V25.9184C12.5313 25.8207 12.099 25.9346 11.7899 26.222L11.78 26.2311L10.8884 27.1293C10.7707 27.2533 10.6293 27.352 10.4728 27.4194C10.3163 27.4868 10.1479 27.5216 9.97766 27.5216C9.80747 27.5216 9.63903 27.4868 9.4825 27.4194C9.32598 27.352 9.1846 27.2533 9.06688 27.1293C8.8628 26.93 8.73236 26.6662 8.69718 26.3818C8.662 26.0975 8.72419 25.8095 8.87344 25.5656L8.89232 25.5303C9.19368 24.9667 9.03751 24.2675 8.525 23.8856V23.8856C6.28184 22.2419 4.96 20.0002 4.96 17.5133C4.96 12.8322 9.8084 8.75664 16.12 8.75664C17.6452 8.75664 19.0985 8.98681 20.4216 9.42089V9.42089C20.8285 9.56623 21.2821 9.48149 21.6091 9.19905L21.6231 9.18697C22.5085 8.39011 23.6034 7.96104 24.49 7.74087ZM23.56 15.0114C22.878 15.0114 22.32 15.5743 22.32 16.2623C22.32 16.9504 22.878 17.5133 23.56 17.5133C24.242 17.5133 24.8 16.9504 24.8 16.2623C24.8 15.5743 24.242 15.0114 23.56 15.0114Z" fill="black"/>
</svg>
